<?xml version="1.0" standalone="no"?>
<!DOCTYPE svg PUBLIC "-//W3C//DTD SVG 20010904//EN"
 "http://www.w3.org/TR/2001/REC-SVG-20010904/DTD/svg10.dtd">
<svg version="1.0" xmlns="http://www.w3.org/2000/svg"
 width="618.000000pt" height="618.000000pt" viewBox="0 0 618.000000 618.000000"
 preserveAspectRatio="xMidYMid meet">
<metadata>
Created by potrace 1.11, written by Peter Selinger 2001-2013
</metadata>
<g transform="translate(0.000000,618.000000) scale(0.100000,-0.100000)"
fill="#000000" stroke="none">
<path d="M4711 5895 c-34 -15 -1341 -1315 -1374 -1368 -26 -41 -28 -105 -6
-152 11 -22 109 -130 232 -252 116 -118 214 -215 215 -218 2 -2 -16 -22 -39
-44 l-43 -41 -217 215 c-119 118 -223 215 -232 215 -9 0 -19 10 -23 23 -11 36
-413 437 -459 458 -52 23 -112 18 -161 -14 -22 -14 -72 -60 -113 -101 -41 -42
-75 -75 -76 -74 -2 2 0 34 4 72 22 205 -35 436 -150 611 -98 151 -207 171
-320 59 l-49 -48 -302 -1 c-291 0 -303 0 -318 20 -69 90 -152 131 -245 121
-71 -7 -123 -34 -173 -91 -93 -106 -75 -277 38 -364 l45 -33 1 -302 1 -301
-43 -45 c-72 -76 -87 -146 -48 -221 42 -82 230 -192 413 -241 83 -22 273 -32
336 -18 20 5 35 7 33 5 -2 -2 -44 -46 -95 -98 -116 -120 -135 -178 -88 -266
21 -39 416 -428 447 -440 16 -6 28 -18 28 -27 0 -10 97 -115 216 -235 l216
-217 -42 -42 -42 -42 -60 58 c-33 33 -130 130 -216 216 -86 87 -171 165 -189
173 -44 21 -104 25 -143 9 -46 -20 -1366 -1341 -1385 -1388 -20 -48 -19 -99 4
-144 11 -20 248 -265 528 -544 457 -456 512 -507 548 -514 58 -11 66 -11 108
6 51 20 1361 1327 1387 1384 25 53 19 117 -14 164 -14 20 -120 131 -236 246
l-210 210 23 25 c12 14 31 33 42 42 20 18 28 10 380 -341 232 -232 372 -364
395 -374 44 -17 112 -14 146 9 14 9 43 32 64 51 l38 34 105 -104 c66 -65 119
-108 141 -116 48 -16 112 -5 152 25 62 48 776 769 786 795 37 94 20 137 -108
267 -108 110 -111 118 -66 146 7 5 24 26 38 49 31 48 38 120 17 163 -8 17
-177 192 -374 391 l-360 360 41 42 c23 23 43 42 44 42 2 0 97 -95 212 -210
115 -116 225 -221 244 -235 48 -33 114 -40 163 -17 47 21 1360 1331 1382 1379
19 40 21 96 5 138 -15 41 -1015 1042 -1059 1061 -42 18 -96 17 -140 -1z
m-2991 -835 c0 -6 -593 -600 -600 -600 -3 0 -5 91 -5 202 l0 203 40 20 c23 11
52 29 67 41 34 26 78 92 78 115 0 9 5 19 10 21 16 5 410 3 410 -2z"/>
</g>
</svg>
